<mxfile host="65bd71144e">
    <diagram id="2d38cY8FLGBOjqEzuytp" name="Page-1">
        <mxGraphModel dx="441" dy="215" grid="1" gridSize="10" guides="1" tooltips="1" connect="1" arrows="1" fold="1" page="1" pageScale="1" pageWidth="850" pageHeight="1100" math="1" shadow="0">
            <root>
                <mxCell id="0"/>
                <mxCell id="1" parent="0"/>
                <mxCell id="40" style="edgeStyle=none;html=1;fontFamily=Times New Roman;" parent="1" source="2" edge="1">
                    <mxGeometry relative="1" as="geometry">
                        <mxPoint x="260" y="340" as="targetPoint"/>
                    </mxGeometry>
                </mxCell>
                <mxCell id="2" value="Band Split" style="whiteSpace=wrap;html=1;" parent="1" vertex="1">
                    <mxGeometry x="154" y="320" width="69" height="40" as="geometry"/>
                </mxCell>
                <mxCell id="45" value="Band Sequence" style="whiteSpace=wrap;html=1;" parent="1" vertex="1">
                    <mxGeometry x="260" y="320" width="69" height="40" as="geometry"/>
                </mxCell>
                <mxCell id="49" style="edgeStyle=none;html=1;" edge="1" parent="1" source="46" target="48">
                    <mxGeometry relative="1" as="geometry"/>
                </mxCell>
                <mxCell id="46" value="Mask Estimation" style="whiteSpace=wrap;html=1;" parent="1" vertex="1">
                    <mxGeometry x="366" y="319" width="69" height="40" as="geometry"/>
                </mxCell>
                <mxCell id="47" style="edgeStyle=none;html=1;fontFamily=Times New Roman;" parent="1" edge="1">
                    <mxGeometry relative="1" as="geometry">
                        <mxPoint x="329" y="339.71" as="sourcePoint"/>
                        <mxPoint x="366" y="339.71" as="targetPoint"/>
                    </mxGeometry>
                </mxCell>
                <mxCell id="48" value="Loss" style="ellipse;whiteSpace=wrap;html=1;" vertex="1" parent="1">
                    <mxGeometry x="470" y="323.5" width="31" height="31" as="geometry"/>
                </mxCell>
            </root>
        </mxGraphModel>
    </diagram>
</mxfile>